<svg style="position: absolute; width: 0; height: 0; overflow: hidden;" version="1.1" xmlns="http://www.w3.org/2000/svg" xmlns:xlink="http://www.w3.org/1999/xlink">
<defs>
<symbol id="icon-conversation" viewBox="0 0 20 20">
<title>conversation</title>
<path d="M17 11v3l-3-3h-6c-1.105 0-2-0.895-2-2v0-7c0-1.1 0.9-2 2-2h10c1.105 0 2 0.895 2 2v0 7c0 1.105-0.895 2-2 2v0h-1zM14 13v2c0 1.105-0.895 2-2 2v0h-6l-3 3v-3h-1c-1.105 0-2-0.895-2-2v0-7c0-1.1 0.9-2 2-2h2v3c0 2.209 1.791 4 4 4v0h6z"></path>
</symbol>
<symbol id="icon-news-paper" viewBox="0 0 20 20">
<title>news-paper</title>
<path d="M16 2h4v15c0 1.657-1.343 3-3 3v0h-14c-1.657 0-3-1.343-3-3v0-17h16v2zM16 4v13c0 0.552 0.448 1 1 1v0c0.552 0 1-0.448 1-1v0-13h-2zM2 2v15c0 0.552 0.448 1 1 1v0h11.17c-0.108-0.295-0.17-0.637-0.17-0.992 0-0.003 0-0.006 0-0.008v0-15h-12zM4 10h8v2h-8v-2zM4 14h8v2h-8v-2zM4 4h8v4h-8v-4z"></path>
</symbol>
<symbol id="icon-search" viewBox="0 0 20 20">
<title>search</title>
<path d="M12.9 14.32c-1.34 1.049-3.050 1.682-4.908 1.682-4.418 0-8-3.582-8-8s3.582-8 8-8c4.418 0 8 3.582 8 8 0 1.858-0.633 3.567-1.695 4.925l0.013-0.018 5.35 5.33-1.42 1.42-5.33-5.34zM8 14c3.314 0 6-2.686 6-6s-2.686-6-6-6v0c-3.314 0-6 2.686-6 6s2.686 6 6 6v0z"></path>
</symbol>
<symbol id="icon-user" viewBox="0 0 20 20">
<title>user</title>
<path d="M5 5c0-2.761 2.239-5 5-5s5 2.239 5 5v0 2c0 2.761-2.239 5-5 5s-5-2.239-5-5v0-2zM0 16.68c2.86-1.685 6.301-2.68 9.974-2.68 0.009 0 0.018 0 0.027 0h-0.001c3.64 0 7.060 0.97 10 2.68v3.32h-20v-3.32z"></path>
</symbol>
<symbol id="icon-user-add" viewBox="0 0 20 20">
<title>user-add</title>
<path d="M2 6h-2v2h2v2h2v-2h2v-2h-2v-2h-2v2zM9 6c0-1.657 1.343-3 3-3s3 1.343 3 3v0 2c0 1.657-1.343 3-3 3s-3-1.343-3-3v0-2zM20 15.14c-2.287-1.345-5.038-2.14-7.975-2.14-0.009 0-0.018 0-0.026 0h0.001c-2.91 0-5.65 0.78-8 2.14v2.86h16v-2.86z"></path>
</symbol>
<symbol id="icon-star" viewBox="0 0 32 32">
<title>star</title>
<path d="M31.881 12.557c-0.277-0.799-0.988-1.384-1.844-1.511l-8.326-1.238-3.619-7.514c-0.381-0.789-1.196-1.294-2.092-1.294s-1.711 0.505-2.092 1.294l-3.619 7.514-8.327 1.238c-0.855 0.127-1.566 0.712-1.842 1.511-0.275 0.801-0.067 1.683 0.537 2.285l6.102 6.092-1.415 8.451c-0.144 0.851 0.225 1.705 0.948 2.203 0.397 0.273 0.864 0.412 1.331 0.412 0.384 0 0.769-0.094 1.118-0.281l7.259-3.908 7.26 3.908c0.349 0.187 0.734 0.281 1.117 0.281 0.467 0 0.934-0.139 1.332-0.412 0.723-0.498 1.090-1.352 0.947-2.203l-1.416-8.451 6.104-6.092c0.603-0.603 0.81-1.485 0.537-2.285zM23.588 19.363c-0.512 0.51-0.744 1.229-0.627 1.934l1.416 8.451-7.26-3.906c-0.348-0.188-0.732-0.281-1.118-0.281-0.384 0-0.769 0.094-1.117 0.281l-7.26 3.906 1.416-8.451c0.118-0.705-0.114-1.424-0.626-1.934l-6.102-6.092 8.326-1.24c0.761-0.113 1.416-0.589 1.743-1.268l3.621-7.512 3.62 7.513c0.328 0.679 0.982 1.154 1.742 1.268l8.328 1.24-6.102 6.091z"></path>
</symbol>
<symbol id="icon-user1" viewBox="0 0 32 32">
<title>user1</title>
<path d="M31.11 28.336c-0.201-0.133-3.848-2.525-9.273-3.699 1.99-2.521 3.268-5.912 3.811-8.169 0.754-3.128 0.461-9.248-2.543-13.062-1.756-2.229-4.213-3.406-7.105-3.406s-5.349 1.178-7.104 3.406c-3.004 3.813-3.296 9.933-2.543 13.061 0.543 2.257 1.82 5.648 3.811 8.169-5.425 1.174-9.072 3.566-9.272 3.699-0.733 0.488-1.061 1.4-0.805 2.242 0.254 0.845 1.033 1.423 1.913 1.423h28c0.881 0 1.658-0.578 1.914-1.422 0.257-0.842-0.071-1.754-0.804-2.242zM20.267 23.398l-0.326 0.414c-2.385 2.74-5.495 2.74-7.879 0l-0.327-0.414c-2.785-3.529-4.167-8.197-3.572-12.65 0.545-4.279 2.997-8.748 7.837-8.748s7.293 4.47 7.838 8.749c0.593 4.455-0.784 9.118-3.571 12.649zM2 30c0.138-0.092 3.526-2.314 8.586-3.408l2.484-0.537c0.887 0.582 1.86 0.945 2.93 0.945 1.071 0 2.043-0.363 2.93-0.945l2.484 0.537c5.020 1.086 8.396 3.283 8.586 3.408h-28z"></path>
</symbol>
<symbol id="icon-search1" viewBox="0 0 32 32">
<title>search1</title>
<path d="M20 0.005c-6.627 0-12 5.373-12 12 0 2.026 0.507 3.933 1.395 5.608l-8.344 8.342 0.007 0.006c-0.652 0.641-1.058 1.529-1.058 2.516 0 1.949 1.58 3.529 3.529 3.529 0.985 0 1.874-0.406 2.515-1.059l-0.002-0.002 8.341-8.34c1.676 0.891 3.586 1.4 5.617 1.4 6.627 0 12-5.373 12-12s-5.373-12-12-12zM4.795 29.697c-0.322 0.334-0.768 0.543-1.266 0.543-0.975 0-1.765-0.789-1.765-1.764 0-0.498 0.21-0.943 0.543-1.266l-0.009-0.008 8.066-8.066c0.705 0.951 1.545 1.791 2.494 2.498l-8.063 8.063zM20 22.006c-5.522 0-10-4.479-10-10s4.478-10 10-10c5.521 0 10 4.478 10 10s-4.479 10-10 10zM20 5.005c0.275 0 0.5 0.224 0.5 0.5s-0.225 0.5-0.5 0.5c-3.314 0-6 2.687-6 6 0 0.276-0.224 0.5-0.5 0.5s-0.5-0.224-0.5-0.5c0-3.866 3.133-7 7-7z"></path>
</symbol>
<symbol id="icon-banknote" viewBox="0 0 32 32">
<title>banknote</title>
<path d="M31.415 10.586l-10-10c-0.496-0.496-1.215-0.695-1.896-0.527-0.359 0.088-0.68 0.273-0.934 0.527-0.227 0.227-0.398 0.508-0.496 0.822-0.453 1.469-1.236 2.746-2.395 3.904-1.548 1.547-3.564 2.719-5.697 3.958-2.264 1.312-4.603 2.672-6.52 4.588-1.629 1.631-2.738 3.445-3.388 5.551-0.219 0.711-0.028 1.48 0.496 2.006l10 10c0.496 0.496 1.215 0.695 1.896 0.527 0.359-0.090 0.68-0.273 0.934-0.527 0.227-0.227 0.398-0.508 0.496-0.824 0.454-1.469 1.237-2.746 2.397-3.904 1.547-1.547 3.562-2.717 5.697-3.955 2.262-1.314 4.602-2.674 6.518-4.59 1.629-1.629 2.738-3.445 3.389-5.551 0.218-0.71 0.026-1.482-0.497-2.005zM12 30c-3.312-3.312-6.688-6.689-10-10 2.842-9.201 15.16-8.799 18-18 3.312 3.311 6.689 6.688 10.002 10-2.843 9.199-15.161 8.799-18.002 18zM19.562 14.9c-0.326-0.273-0.654-0.459-0.984-0.551-0.328-0.092-0.656-0.129-0.988-0.105-0.328 0.025-0.664 0.1-1 0.229-0.336 0.131-0.674 0.273-1.014 0.438-0.537-0.617-1.074-1.227-1.611-1.793 0.242-0.219 0.477-0.33 0.703-0.338 0.227-0.010 0.445 0.014 0.652 0.066 0.211 0.053 0.404 0.098 0.582 0.133 0.18 0.035 0.336-0.004 0.473-0.119 0.145-0.125 0.225-0.287 0.236-0.482 0.010-0.197-0.064-0.389-0.229-0.576-0.211-0.242-0.465-0.389-0.77-0.443-0.301-0.053-0.609-0.049-0.93 0.021-0.316 0.072-0.617 0.191-0.902 0.359s-0.514 0.34-0.684 0.508c-0.065-0.062-0.13-0.123-0.195-0.184-0.072-0.066-0.162-0.102-0.27-0.1-0.109 0-0.199 0.047-0.273 0.133-0.072 0.084-0.105 0.182-0.092 0.285 0.010 0.107 0.053 0.189 0.127 0.252 0.065 0.055 0.13 0.109 0.195 0.166-0.256 0.309-0.467 0.65-0.633 1.010-0.168 0.361-0.268 0.719-0.305 1.066-0.039 0.35-0.002 0.67 0.105 0.967 0.107 0.299 0.305 0.553 0.594 0.793 0.471 0.391 1.025 0.557 1.668 0.52 0.641-0.039 1.332-0.23 2.075-0.629 0.59 0.682 1.182 1.359 1.773 1.988-0.25 0.211-0.469 0.332-0.662 0.371-0.193 0.041-0.365 0.037-0.521-0.010-0.156-0.049-0.301-0.119-0.434-0.209-0.133-0.092-0.264-0.17-0.395-0.234-0.129-0.064-0.262-0.1-0.398-0.102s-0.281 0.064-0.441 0.201c-0.164 0.143-0.246 0.309-0.246 0.496s0.086 0.375 0.254 0.566c0.17 0.191 0.391 0.352 0.658 0.479s0.569 0.207 0.901 0.229c0.332 0.023 0.682-0.027 1.051-0.164 0.371-0.135 0.738-0.379 1.1-0.742 0.174 0.17 0.35 0.332 0.525 0.488 0.074 0.064 0.164 0.096 0.273 0.088 0.105-0.004 0.197-0.053 0.27-0.141 0.074-0.090 0.105-0.189 0.094-0.293-0.010-0.105-0.053-0.186-0.125-0.244-0.176-0.141-0.352-0.289-0.527-0.445 0.299-0.367 0.539-0.754 0.717-1.137 0.178-0.385 0.283-0.756 0.318-1.1 0.035-0.346-0.006-0.658-0.119-0.941-0.112-0.287-0.311-0.533-0.596-0.77zM13.971 15.578c-0.283 0.012-0.53-0.082-0.746-0.291-0.092-0.088-0.156-0.195-0.195-0.322-0.041-0.127-0.055-0.266-0.039-0.418 0.014-0.15 0.059-0.307 0.137-0.465 0.074-0.158 0.184-0.316 0.324-0.469 0.507 0.504 1.013 1.057 1.52 1.629-0.384 0.211-0.718 0.324-1.001 0.336zM18.688 17.58c-0.090 0.166-0.193 0.314-0.314 0.443-0.561-0.566-1.121-1.188-1.68-1.826 0.143-0.064 0.293-0.131 0.455-0.199s0.324-0.113 0.486-0.141c0.166-0.025 0.33-0.018 0.494 0.021 0.162 0.041 0.316 0.129 0.459 0.268 0.141 0.141 0.23 0.287 0.266 0.445 0.039 0.16 0.041 0.322 0.014 0.488-0.029 0.167-0.088 0.333-0.18 0.501zM14.717 22.18c0.197-0.159 0.487-0.151 0.668 0.033 0.196 0.195 0.196 0.514 0 0.709-0.016 0.016-0.033 0.027-0.051 0.041l0.002 0.002c-0.633 0.481-1.153 0.914-1.714 1.475-0.507 0.506-0.965 1.039-1.361 1.58l-0.639 0.875c-0.020 0.036-0.044 0.069-0.074 0.1-0.196 0.195-0.515 0.195-0.71 0-0.17-0.17-0.191-0.432-0.066-0.627l-0.002-0.002 0.684-0.934c0.427-0.584 0.918-1.156 1.461-1.699 0.565-0.567 1.175-1.073 1.8-1.553h0.002zM18.378 7.715c0.506-0.506 0.963-1.037 1.36-1.581l0.664-0.91c0.024-0.043 0.051-0.086 0.088-0.123 0.197-0.197 0.516-0.197 0.713 0 0.187 0.188 0.195 0.485 0.025 0.684l0.002 0.002-0.684 0.938c-0.428 0.584-0.918 1.154-1.461 1.697-0.565 0.565-1.174 1.073-1.799 1.553l-0.004-0.002c-0.199 0.183-0.508 0.179-0.699-0.014-0.197-0.197-0.197-0.518 0-0.715 0.035-0.037 0.076-0.063 0.117-0.086 0.588-0.449 1.155-0.92 1.678-1.443z"></path>
</symbol>

<symbol id="icon-cart" viewBox="0 0 32 32">
<title>cart</title>
<path d="M12 29c0 1.657-1.343 3-3 3s-3-1.343-3-3c0-1.657 1.343-3 3-3s3 1.343 3 3z"></path>
<path d="M32 29c0 1.657-1.343 3-3 3s-3-1.343-3-3c0-1.657 1.343-3 3-3s3 1.343 3 3z"></path>
<path d="M32 16v-12h-24c0-1.105-0.895-2-2-2h-6v2h4l1.502 12.877c-0.915 0.733-1.502 1.859-1.502 3.123 0 2.209 1.791 4 4 4h24v-2h-24c-1.105 0-2-0.895-2-2 0-0.007 0-0.014 0-0.020l26-3.98z"></path>
</symbol>
</defs>
</svg>
